<?xml version="1.0" encoding="UTF-8"?>
<svg version="1.1" xmlns="http://www.w3.org/2000/svg" width="1024" height="1024">
<path d="M0 0 C5.71992158 5.64079223 8.97521201 12.47011889 9.4140625 20.44921875 C9.326465 27.02876457 6.83364262 32.68171382 2.9765625 37.94921875 C0.4170216 40.11210565 -2.256617 42.06093849 -5.0234375 43.94921875 C-4.07402528 48.63290981 -3.11353788 53.3141365 -2.14257812 57.9934082 C-1.81365137 59.5865253 -1.48779442 61.18027936 -1.16503906 62.7746582 C-0.70136604 65.06244365 -0.22680647 67.34773313 0.25 69.6328125 C0.39279388 70.34948593 0.53558777 71.06615936 0.68270874 71.80455017 C1.04929813 73.53442436 1.50499074 75.24496743 1.9765625 76.94921875 C4.6006481 78.26126155 6.87911534 78.32143516 9.8046875 78.59765625 C11.58407715 78.77240479 11.58407715 78.77240479 13.39941406 78.95068359 C14.66237305 79.0739502 15.92533203 79.1972168 17.2265625 79.32421875 C48.4253802 82.55915552 48.4253802 82.55915552 57.2890625 92.19921875 C62.52375611 99.64475026 63.22813422 111.08830373 62.9765625 119.94921875 C63.56179688 120.07296875 64.14703125 120.19671875 64.75 120.32421875 C94.17763461 127.39392076 121.284627 146.59744593 142.9765625 166.94921875 C143.50121094 167.43986816 144.02585937 167.93051758 144.56640625 168.43603516 C157.28056872 180.42713469 168.02229157 193.71542749 176.64355469 208.94873047 C178.23532479 211.66701623 179.48778021 213.66169975 182.234375 215.27734375 C186.65458987 216.36035936 191.09276935 217.32871688 195.5625 218.18554688 C202.59033656 219.69778671 207.59014358 222.5267776 211.6640625 228.5625 C214.48579561 233.49246426 216.24524377 238.74613079 217.9765625 244.13671875 C218.31905029 245.18827148 218.66153809 246.23982422 219.0144043 247.32324219 C225.3753633 267.25274861 229.83583346 288.01348572 230.9765625 308.94921875 C231.04101562 309.85671875 231.10546875 310.76421875 231.171875 311.69921875 C231.48153433 319.13104262 230.34230432 325.75844829 225.57421875 331.6953125 C222.86736061 334.243333 220.55137722 335.75786496 216.99609375 336.94140625 C213.32426247 338.23839903 210.89608769 339.34173651 207.9765625 341.94921875 C205.63580884 347.37121053 205.24577308 353.50687149 204.42041016 359.30517578 C200.49201772 382.70698551 186.09898771 404.1382914 169.9765625 420.94921875 C169.29335938 421.68398438 168.61015625 422.41875 167.90625 423.17578125 C153.01668478 438.72466301 134.4030591 449.98870764 114.9765625 458.94921875 C114.27257324 459.27631836 113.56858398 459.60341797 112.84326172 459.94042969 C40.0802369 493.30303333 -54.25392281 493.85354336 -129.2734375 467.19921875 C-160.462726 455.57061282 -190.73287027 437.97184706 -211.4609375 411.32421875 C-211.93047852 410.72085693 -212.40001953 410.11749512 -212.88378906 409.49584961 C-227.17492289 390.83310958 -240.0234375 365.11777727 -240.0234375 340.94921875 C-241.10625 340.78486328 -241.10625 340.78486328 -242.2109375 340.6171875 C-249.56652125 338.87023636 -255.84981787 334.14641153 -260.0234375 327.94921875 C-271.21707834 305.12511206 -257.38531383 266.62883533 -249.9609375 243.94921875 C-246.45553747 233.78030982 -243.01141934 225.11855135 -233.0234375 219.94921875 C-229.21215852 218.66899937 -225.33511319 217.66391665 -221.4074707 216.80957031 C-215.12259775 215.36061603 -212.05380015 212.91630608 -208.35546875 207.51171875 C-207.85402344 206.66609375 -207.35257812 205.82046875 -206.8359375 204.94921875 C-182.45335981 165.66325124 -144.93623292 138.04734034 -102.07543945 121.78369141 C-101.05969849 121.37062744 -101.05969849 121.37062744 -100.0234375 120.94921875 C-99.29020264 120.65909912 -98.55696777 120.36897949 -97.80151367 120.07006836 C-97.21474854 119.70018799 -96.6279834 119.33030762 -96.0234375 118.94921875 C-95.49388093 116.17807327 -95.19506275 113.68141924 -95.0234375 110.88671875 C-94.23744841 102.05035198 -92.52271071 94.44849196 -86.0234375 87.94921875 C-80.48412852 84.25874406 -75.48615998 82.90147958 -68.9609375 81.82421875 C-68.01589355 81.65954102 -67.07084961 81.49486328 -66.09716797 81.32519531 C-55.79968875 79.60979798 -45.43016957 78.69755435 -35.0234375 77.94921875 C-34.76949219 76.74007812 -34.51554688 75.5309375 -34.25390625 74.28515625 C-32.19767315 64.50201602 -30.12787991 54.72212176 -28.0234375 44.94921875 C-29.3434375 44.61921875 -30.6634375 44.28921875 -32.0234375 43.94921875 C-32.0234375 42.95921875 -32.0234375 41.96921875 -32.0234375 40.94921875 C-32.7659375 40.22734375 -33.5084375 39.50546875 -34.2734375 38.76171875 C-38.86759928 34.0631442 -41.54196985 28.7357188 -42.05078125 22.08203125 C-41.94561782 13.87928362 -39.75123417 7.8613583 -34.0234375 1.94921875 C-24.60010809 -6.7237753 -10.35383636 -7.77478985 0 0 Z M-65.0234375 177.94921875 C-66.45115479 178.29460693 -66.45115479 178.29460693 -67.90771484 178.64697266 C-105.6695865 187.89971721 -139.32830319 207.03393585 -160.0234375 240.94921875 C-162.96967388 246.14861326 -165.54659656 251.51353396 -168.0234375 256.94921875 C-168.48492187 257.94824219 -168.94640625 258.94726562 -169.421875 259.9765625 C-182.42194189 290.82067025 -186.24527527 329.37044798 -174.0234375 360.94921875 C-164.2555953 384.11039059 -141.14460869 397.59944316 -119.0234375 406.94921875 C-67.39323599 427.56343424 -2.78073845 427.79300659 50.9765625 416.94921875 C51.8727832 416.7702002 52.76900391 416.59118164 53.69238281 416.40673828 C84.21527237 410.14233711 118.55808206 397.63108893 136.7890625 370.63671875 C152.32077864 344.57998084 151.24939826 310.62692538 144.48779297 281.94287109 C136.07143677 249.12149348 117.69494036 219.41651711 88.9140625 200.82421875 C60.48135741 184.26715925 27.93647821 173.99445659 -5.12109375 173.7109375 C-6.0648436 173.70114365 -7.00859344 173.69134979 -7.98094177 173.68125916 C-36.73532852 173.3602464 -36.73532852 173.3602464 -65.0234375 177.94921875 Z " fill="#FEFEFE" transform="translate(528.0234375,234.05078125)"/>
<path d="M0 0 C9.97445211 8.31204342 14.48846008 20.08624839 16.140625 32.625 C17.15899905 46.34122546 14.05013375 57.68902497 6.390625 68.9921875 C6.00003906 69.58128906 5.60945313 70.17039062 5.20703125 70.77734375 C1.40479296 75.9215485 -3.93975716 79.039723 -10.0625 80.62890625 C-17.56040552 81.72529809 -23.95390297 80.46341637 -30.25 76.20703125 C-39.24633598 68.78640082 -43.79026645 59.36971626 -45.609375 47.9921875 C-46.97099275 33.2140962 -45.61352577 19.2519107 -36.609375 6.9921875 C-36.0525 6.1259375 -35.495625 5.2596875 -34.921875 4.3671875 C-24.96925889 -5.85441824 -11.99120513 -7.88101217 0 0 Z " fill="#FEFEFE" transform="translate(447.609375,495.0078125)"/>
<path d="M0 0 C9.01358697 7.68756579 14.75827696 17.92067377 16.09765625 29.7890625 C17.13010963 44.79650982 14.90037003 59.24183954 5.17578125 71.140625 C-0.6567978 77.35752128 -6.69508562 80.26200567 -15.20703125 80.92578125 C-21.59084312 80.60196471 -28.10222655 78.03102654 -32.90234375 73.7890625 C-32.90234375 73.1290625 -32.90234375 72.4690625 -32.90234375 71.7890625 C-33.56234375 71.7890625 -34.22234375 71.7890625 -34.90234375 71.7890625 C-44.84719109 58.05798413 -47.21554075 42.99476808 -44.6875 26.50390625 C-42.51648242 16.23207683 -38.01042387 6.31993884 -29.40625 -0.0625 C-19.48441269 -6.28391953 -9.71883364 -7.23341763 0 0 Z " fill="#FEFEFE" transform="translate(605.90234375,495.2109375)"/>
<path d="M0 0 C3 1 3 1 3 1 Z " fill="#F0F2F2" transform="translate(531,719)"/>
<path d="M0 0 C3 1 3 1 3 1 Z " fill="#EFF0F1" transform="translate(464,717)"/>
<path d="M0 0 C3 1 3 1 3 1 Z " fill="#EEEFF0" transform="translate(595,710)"/>
<path d="" fill="#FCFEFE" transform="translate(0,0)"/>
<path d="" fill="#FCFDFE" transform="translate(0,0)"/>
<path d="M0 0 C3 1 3 1 3 1 Z " fill="#FCFEFD" transform="translate(544,411)"/>
<path d="M0 0 C2 1 2 1 2 1 Z " fill="#F0F0F4" transform="translate(528,719)"/>
<path d="" fill="#F1F2F4" transform="translate(0,0)"/>
<path d="" fill="#FDFDFE" transform="translate(0,0)"/>
<path d="" fill="#FDFDFD" transform="translate(0,0)"/>
<path d="M0 0 C2 1 2 1 2 1 Z " fill="#F8F9F8" transform="translate(473,312)"/>
<path d="" fill="#000000" transform="translate(0,0)"/>
<path d="" fill="#000000" transform="translate(0,0)"/>
<path d="" fill="#000000" transform="translate(0,0)"/>
<path d="" fill="#000000" transform="translate(0,0)"/>
<path d="" fill="#F3F4F3" transform="translate(0,0)"/>
<path d="" fill="#F1F3F2" transform="translate(0,0)"/>
<path d="" fill="#F2F3F2" transform="translate(0,0)"/>
<path d="" fill="#EEEFEF" transform="translate(0,0)"/>
<path d="" fill="#EAEDEE" transform="translate(0,0)"/>
<path d="" fill="#ECEEEF" transform="translate(0,0)"/>
<path d="" fill="#EEF0F1" transform="translate(0,0)"/>
<path d="" fill="#ECEEEE" transform="translate(0,0)"/>
<path d="" fill="#E9EBEB" transform="translate(0,0)"/>
<path d="" fill="#000000" transform="translate(0,0)"/>
<path d="" fill="#E8E9EB" transform="translate(0,0)"/>
<path d="" fill="#FBFEFD" transform="translate(0,0)"/>
<path d="" fill="#EBEAEB" transform="translate(0,0)"/>
<path d="" fill="#EBEBEB" transform="translate(0,0)"/>
<path d="" fill="#E8E9EA" transform="translate(0,0)"/>
<path d="" fill="#000000" transform="translate(0,0)"/>
<path d="" fill="#EBEDEE" transform="translate(0,0)"/>
<path d="" fill="#FEFCFD" transform="translate(0,0)"/>
<path d="" fill="#FEFDFE" transform="translate(0,0)"/>
<path d="" fill="#EFF0F2" transform="translate(0,0)"/>
<path d="" fill="#EFF1F2" transform="translate(0,0)"/>
<path d="" fill="#EDF1F2" transform="translate(0,0)"/>
<path d="" fill="#F2F3F4" transform="translate(0,0)"/>
<path d="" fill="#FEFCFE" transform="translate(0,0)"/>
<path d="" fill="#F2F2F4" transform="translate(0,0)"/>
<path d="" fill="#FAFCFB" transform="translate(0,0)"/>
<path d="" fill="#FBFBFC" transform="translate(0,0)"/>
<path d="" fill="#FAFDFD" transform="translate(0,0)"/>
<path d="" fill="#FBFAFB" transform="translate(0,0)"/>
<path d="" fill="#F9FEFC" transform="translate(0,0)"/>
<path d="" fill="#FBFCFD" transform="translate(0,0)"/>
<path d="" fill="#FEFEFF" transform="translate(0,0)"/>
<path d="" fill="#E6E5E7" transform="translate(0,0)"/>
<path d="" fill="#020303" transform="translate(0,0)"/>
<path d="" fill="#FCFEFC" transform="translate(0,0)"/>
<path d="" fill="#FCFEFF" transform="translate(0,0)"/>
<path d="" fill="#EBEDEE" transform="translate(0,0)"/>
<path d="" fill="#FCFDFF" transform="translate(0,0)"/>
<path d="" fill="#FDFFFE" transform="translate(0,0)"/>
<path d="" fill="#E7EAEC" transform="translate(0,0)"/>
<path d="" fill="#EBECEC" transform="translate(0,0)"/>
<path d="" fill="#FBFBFE" transform="translate(0,0)"/>
<path d="" fill="#E8EBED" transform="translate(0,0)"/>
<path d="" fill="#EAEAEA" transform="translate(0,0)"/>
<path d="" fill="#E9EAEB" transform="translate(0,0)"/>
<path d="" fill="#FDFDFE" transform="translate(0,0)"/>
<path d="" fill="#FEFCFF" transform="translate(0,0)"/>
<path d="" fill="#FDFDFE" transform="translate(0,0)"/>
<path d="" fill="#FEFDFE" transform="translate(0,0)"/>
<path d="" fill="#FCFEFF" transform="translate(0,0)"/>
<path d="" fill="#FCFDFE" transform="translate(0,0)"/>
<path d="" fill="#FCFCFC" transform="translate(0,0)"/>
<path d="" fill="#FCFCFD" transform="translate(0,0)"/>
<path d="" fill="#FCFEFF" transform="translate(0,0)"/>
<path d="" fill="#FBFDFE" transform="translate(0,0)"/>
<path d="" fill="#FCFDFF" transform="translate(0,0)"/>
<path d="" fill="#E3E4E4" transform="translate(0,0)"/>
<path d="" fill="#EAEDED" transform="translate(0,0)"/>
<path d="" fill="#EDF0F0" transform="translate(0,0)"/>
<path d="" fill="#ECEDEE" transform="translate(0,0)"/>
<path d="" fill="#FCFCFE" transform="translate(0,0)"/>
<path d="" fill="#FAFEFC" transform="translate(0,0)"/>
<path d="" fill="#FBFCFD" transform="translate(0,0)"/>
<path d="" fill="#EFEFEF" transform="translate(0,0)"/>
<path d="" fill="#EDEDED" transform="translate(0,0)"/>
<path d="" fill="#F0F2F3" transform="translate(0,0)"/>
<path d="" fill="#F3F4F4" transform="translate(0,0)"/>
<path d="" fill="#F5F5F6" transform="translate(0,0)"/>
<path d="" fill="#F8FAFA" transform="translate(0,0)"/>
<path d="" fill="#F2F4F4" transform="translate(0,0)"/>
<path d="" fill="#000101" transform="translate(0,0)"/>
<path d="" fill="#F5F5F7" transform="translate(0,0)"/>
<path d="" fill="#F0F2F3" transform="translate(0,0)"/>
<path d="" fill="#F3F4F4" transform="translate(0,0)"/>
<path d="" fill="#F5F9F7" transform="translate(0,0)"/>
<path d="" fill="#F8FBFB" transform="translate(0,0)"/>
<path d="" fill="#F5F5F7" transform="translate(0,0)"/>
<path d="" fill="#EDF0F1" transform="translate(0,0)"/>
<path d="" fill="#000000" transform="translate(0,0)"/>
<path d="" fill="#000000" transform="translate(0,0)"/>
</svg>
